<svg xmlns="http://www.w3.org/2000/svg" xmlns:xlink="http://www.w3.org/1999/xlink" viewBox="0 0 218.18 216.86"><defs><style>.cls-1{fill:url(#未命名的渐变_124);}.cls-2{fill:url(#未命名的渐变_125);}.cls-3{fill:url(#未命名的渐变_127);}.cls-4{fill:url(#未命名的渐变_190);}</style><linearGradient id="未命名的渐变_124" x1="107.82" y1="104.86" x2="200.65" y2="52.13" gradientUnits="userSpaceOnUse"><stop offset="0.23" stop-color="#6128fc"/><stop offset="0.96" stop-color="#a244d3"/></linearGradient><linearGradient id="未命名的渐变_125" x1="145.83" y1="163.29" x2="111.03" y2="109.85" gradientUnits="userSpaceOnUse"><stop offset="0" stop-color="#5456ea"/><stop offset="1" stop-color="#15e2d5"/></linearGradient><linearGradient id="未命名的渐变_127" x1="81.28" y1="143.49" x2="-32.43" y2="143.49" gradientUnits="userSpaceOnUse"><stop offset="0.05" stop-color="#d431c2"/><stop offset="1" stop-color="#eaa474"/></linearGradient><linearGradient id="未命名的渐变_190" x1="108.21" y1="81.73" x2="26.64" y2="15.85" gradientUnits="userSpaceOnUse"><stop offset="0.15" stop-color="#ce41ab"/><stop offset="0.26" stop-color="#dc5b92"/><stop offset="0.39" stop-color="#e8727b"/><stop offset="0.52" stop-color="#f1836b"/><stop offset="0.67" stop-color="#f68d61"/><stop offset="0.86" stop-color="#f8905e"/></linearGradient></defs><title>资源 4ldpi</title><g id="图层_2" data-name="图层 2"><g id="图层_1-2" data-name="图层 1"><path class="cls-1" d="M214.14,82.33c-4-4.47-11.76-7.77-29-15.47-29-13-53-23-53-23s-19-9-19,5v32c0,3,0,24,23,24h72c4,0,10-5,10-12.5A13.18,13.18,0,0,0,214.14,82.33Z"/><path class="cls-2" d="M136.53,212.76c4.26-3.73,7.71-11.8,15.33-29,12.85-29.07,22.73-53.12,22.73-53.12s8.91-19-5.09-19l-32,.16c-3,0-24,.12-23.89,23.12l.35,69,0,3c0,6,5,10,12.55,9.94A13.08,13.08,0,0,0,136.53,212.76Z"/><path class="cls-3" d="M4.15,134.91c3.74,4.24,11.83,7.65,29.09,15.2,29.13,12.72,53.22,22.49,53.22,22.49s19.09,8.82,19-5.18l-.3-32c0-3-.23-24-23.23-23.78l-69,.66-3,0c-6,.06-10,5.09-9.88,12.59A13,13,0,0,0,4.15,134.91Z"/><path class="cls-4" d="M83,3.93c-4.32,3.65-7.91,11.66-15.83,28.76C53.78,61.52,43.49,85.4,43.49,85.4s-9.24,18.89,4.76,19.06l32,.39c3,0,24,.3,24.28-22.7l.85-69,0-3C105.49,4.15,100.54.09,93,0A13.07,13.07,0,0,0,83,3.93Z"/></g></g></svg>