<svg style="display:none;" xmlns="http://www.w3.org/2000/svg">
<symbol id="404" viewBox="0 0 128 128" > <path d="M121.718 73.272v9.953c3.957-7.584 6.199-16.05 6.199-24.995C127.917 26.079 99.273 0 63.958 0 28.644 0 0 26.079 0 58.23c0 .403.028.806.028 1.21l22.97-25.953h13.34l-19.76 27.187h6.42V53.77l13.728-19.477v49.361H22.998V73.272H2.158c5.951 20.284 23.608 36.208 45.998 41.399-1.44 3.3-5.618 11.263-12.565 12.674-8.607 1.764 23.358.428 46.163-13.178 17.519-4.611 31.938-15.849 39.77-30.513h-13.506V73.272H85.02V59.464l22.998-25.977h13.008l-19.429 27.187h6.421v-7.433l13.727-19.402v39.433h-.027zm-78.24 2.822a10.516 10.516 0 0 1-.996-4.535V44.548c0-1.613.332-3.124.996-4.535a11.66 11.66 0 0 1 2.713-3.68c1.134-1.032 2.49-1.864 4.04-2.468 1.55-.605 3.21-.908 4.982-.908h11.292c1.77 0 3.431.303 4.981.908 1.522.604 2.85 1.41 3.986 2.418l-12.26 16.303v-2.898a1.96 1.96 0 0 0-.665-1.512c-.443-.403-.996-.604-1.66-.604-.665 0-1.218.201-1.661.604a1.96 1.96 0 0 0-.664 1.512v9.071L44.364 77.606a10.556 10.556 0 0 1-.886-1.512zm35.73-4.535c0 1.613-.332 3.124-.997 4.535a11.66 11.66 0 0 1-2.712 3.68c-1.134 1.032-2.49 1.864-4.04 2.469-1.55.604-3.21.907-4.982.907H55.185c-1.77 0-3.431-.303-4.981-.907-1.55-.605-2.906-1.437-4.041-2.47a12.49 12.49 0 0 1-1.384-1.512l13.727-18.217v6.375c0 .605.222 1.109.665 1.512.442.403.996.604 1.66.604.664 0 1.218-.201 1.66-.604a1.96 1.96 0 0 0 .665-1.512V53.87L75.97 36.838c.913.932 1.66 1.99 2.214 3.175.664 1.41.996 2.922.996 4.535v27.011h.028z"/></symbol>
<symbol id="bug" viewBox="0 0 128 128" > <path d="M127.88 73.143c0 1.412-.506 2.635-1.518 3.669-1.011 1.033-2.209 1.55-3.592 1.55h-17.887c0 9.296-1.783 17.178-5.35 23.645l16.609 17.044c1.011 1.034 1.517 2.257 1.517 3.67 0 1.412-.506 2.635-1.517 3.668-.958 1.033-2.155 1.55-3.593 1.55-1.438 0-2.635-.517-3.593-1.55l-15.811-16.063a15.49 15.49 0 0 1-1.196 1.06c-.532.434-1.65 1.208-3.353 2.322a50.104 50.104 0 0 1-5.192 2.974c-1.758.87-3.94 1.658-6.546 2.364-2.607.706-5.189 1.06-7.748 1.06V47.044H58.89v73.062c-2.716 0-5.417-.367-8.106-1.102-2.688-.734-5.003-1.631-6.945-2.692a66.769 66.769 0 0 1-5.268-3.179c-1.571-1.057-2.73-1.94-3.476-2.65L33.9 109.34l-14.611 16.877c-1.066 1.14-2.344 1.711-3.833 1.711-1.277 0-2.422-.434-3.434-1.304-1.012-.978-1.557-2.187-1.635-3.627-.079-1.44.333-2.705 1.236-3.794l16.129-18.51c-3.087-6.197-4.63-13.644-4.63-22.342H5.235c-1.383 0-2.58-.517-3.592-1.55S.125 74.545.125 73.132c0-1.412.506-2.635 1.518-3.668 1.012-1.034 2.21-1.55 3.592-1.55h17.887V43.939L9.308 29.833c-1.012-1.033-1.517-2.256-1.517-3.669 0-1.412.505-2.635 1.517-3.668 1.012-1.034 2.21-1.55 3.593-1.55s2.58.516 3.593 1.55l13.813 14.106h67.396l13.814-14.106c1.012-1.034 2.21-1.55 3.592-1.55 1.384 0 2.581.516 3.593 1.55 1.012 1.033 1.518 2.256 1.518 3.668 0 1.413-.506 2.636-1.518 3.67l-13.814 14.105v23.975h17.887c1.383 0 2.58.516 3.593 1.55 1.011 1.033 1.517 2.256 1.517 3.668l-.005.01zM89.552 26.175H38.448c0-7.23 2.489-13.386 7.466-18.469C50.892 2.623 56.92.082 64 .082c7.08 0 13.108 2.541 18.086 7.624 4.977 5.083 7.466 11.24 7.466 18.469z"/></symbol>
<symbol id="chart" viewBox="0 0 128 128" > <path d="M0 54.857h36.571V128H0V54.857zM91.429 27.43H128V128H91.429V27.429zM45.714 0h36.572v128H45.714V0z"/></symbol>
<symbol id="clipboard" viewBox="0 0 128 128" > <path d="M54.857 118.857h64V73.143H89.143c-1.902 0-3.52-.668-4.855-2.002-1.335-1.335-2.002-2.954-2.002-4.855V36.57H54.857v82.286zM73.143 16v-4.571a2.2 2.2 0 0 0-.677-1.61 2.198 2.198 0 0 0-1.609-.676H20.571c-.621 0-1.158.225-1.609.676a2.198 2.198 0 0 0-.676 1.61V16a2.2 2.2 0 0 0 .676 1.61c.451.45.988.676 1.61.676h50.285c.622 0 1.158-.226 1.61-.677.45-.45.676-.987.676-1.609zm18.286 48h21.357L91.43 42.642V64zM128 73.143v48c0 1.902-.667 3.52-2.002 4.855-1.335 1.335-2.953 2.002-4.855 2.002H52.57c-1.901 0-3.52-.667-4.854-2.002-1.335-1.335-2.003-2.953-2.003-4.855v-11.429H6.857c-1.902 0-3.52-.667-4.855-2.002C.667 106.377 0 104.759 0 102.857v-96c0-1.902.667-3.52 2.002-4.855C3.337.667 4.955 0 6.857 0h77.714c1.902 0 3.52.667 4.855 2.002 1.335 1.335 2.003 2.953 2.003 4.855V30.29c1 .622 1.856 1.29 2.569 2.003l29.147 29.147c1.335 1.335 2.478 3.145 3.429 5.43.95 2.287 1.426 4.383 1.426 6.291v-.018z"/></symbol>
<symbol id="dashboard" viewBox="0 0 128 100" > <path d="M27.429 63.638c0-2.508-.893-4.65-2.679-6.424-1.786-1.775-3.94-2.662-6.464-2.662-2.524 0-4.679.887-6.465 2.662-1.785 1.774-2.678 3.916-2.678 6.424 0 2.508.893 4.65 2.678 6.424 1.786 1.775 3.94 2.662 6.465 2.662 2.524 0 4.678-.887 6.464-2.662 1.786-1.775 2.679-3.916 2.679-6.424zm13.714-31.801c0-2.508-.893-4.65-2.679-6.424-1.785-1.775-3.94-2.662-6.464-2.662-2.524 0-4.679.887-6.464 2.662-1.786 1.774-2.679 3.916-2.679 6.424 0 2.508.893 4.65 2.679 6.424 1.785 1.774 3.94 2.662 6.464 2.662 2.524 0 4.679-.888 6.464-2.662 1.786-1.775 2.679-3.916 2.679-6.424zM71.714 65.98l7.215-27.116c.285-1.23.107-2.378-.536-3.443-.643-1.064-1.56-1.762-2.75-2.094-1.19-.33-2.333-.177-3.429.462-1.095.639-1.81 1.573-2.143 2.804l-7.214 27.116c-2.857.237-5.405 1.266-7.643 3.088-2.238 1.822-3.738 4.152-4.5 6.992-.952 3.644-.476 7.098 1.429 10.364 1.905 3.265 4.69 5.37 8.357 6.317 3.667.947 7.143.474 10.429-1.42 3.285-1.892 5.404-4.66 6.357-8.305.762-2.84.619-5.607-.429-8.305-1.047-2.697-2.762-4.85-5.143-6.46zm47.143-2.342c0-2.508-.893-4.65-2.678-6.424-1.786-1.775-3.94-2.662-6.465-2.662-2.524 0-4.678.887-6.464 2.662-1.786 1.774-2.679 3.916-2.679 6.424 0 2.508.893 4.65 2.679 6.424 1.786 1.775 3.94 2.662 6.464 2.662 2.524 0 4.679-.887 6.465-2.662 1.785-1.775 2.678-3.916 2.678-6.424zm-45.714-45.43c0-2.509-.893-4.65-2.679-6.425C68.68 10.01 66.524 9.122 64 9.122c-2.524 0-4.679.887-6.464 2.661-1.786 1.775-2.679 3.916-2.679 6.425 0 2.508.893 4.65 2.679 6.424 1.785 1.774 3.94 2.662 6.464 2.662 2.524 0 4.679-.888 6.464-2.662 1.786-1.775 2.679-3.916 2.679-6.424zm32 13.629c0-2.508-.893-4.65-2.679-6.424-1.785-1.775-3.94-2.662-6.464-2.662-2.524 0-4.679.887-6.464 2.662-1.786 1.774-2.679 3.916-2.679 6.424 0 2.508.893 4.65 2.679 6.424 1.785 1.774 3.94 2.662 6.464 2.662 2.524 0 4.679-.888 6.464-2.662 1.786-1.775 2.679-3.916 2.679-6.424zM128 63.638c0 12.351-3.357 23.78-10.071 34.286-.905 1.372-2.19 2.058-3.858 2.058H13.93c-1.667 0-2.953-.686-3.858-2.058C3.357 87.465 0 76.037 0 63.638c0-8.613 1.69-16.847 5.071-24.703C8.452 31.08 13 24.312 18.714 18.634c5.715-5.68 12.524-10.199 20.429-13.559C47.048 1.715 55.333.035 64 .035c8.667 0 16.952 1.68 24.857 5.04 7.905 3.36 14.714 7.88 20.429 13.559 5.714 5.678 10.262 12.446 13.643 20.301 3.38 7.856 5.071 16.09 5.071 24.703z"/></symbol>
<symbol id="example" viewBox="0 0 128 128" > <path d="M96.258 57.462h31.421C124.794 27.323 100.426 2.956 70.287.07v31.422a32.856 32.856 0 0 1 25.971 25.97zm-38.796-25.97V.07C27.323 2.956 2.956 27.323.07 57.462h31.422a32.856 32.856 0 0 1 25.97-25.97zm12.825 64.766v31.421c30.46-2.885 54.507-27.253 57.713-57.712H96.579c-2.886 13.466-13.146 23.726-26.292 26.291zM31.492 70.287H.07c2.886 30.46 27.253 54.507 57.713 57.713V96.579c-13.466-2.886-23.726-13.146-26.291-26.292z"/></symbol>
</svg>